<mxfile host="Electron" modified="2024-05-09T15:34:45.822Z" agent="Mozilla/5.0 (Macintosh; Intel Mac OS X 10_15_7) AppleWebKit/537.36 (KHTML, like Gecko) draw.io/24.2.5 Chrome/120.0.6099.109 Electron/28.1.0 Safari/537.36" etag="OKa2KEpn6peyemFkfrUL" version="24.2.5" type="device" pages="2">
  <diagram name="Page-1" id="AD3TpbaUrpXrk2EEQHxS">
    <mxGraphModel dx="1194" dy="748" grid="1" gridSize="10" guides="1" tooltips="1" connect="1" arrows="1" fold="1" page="1" pageScale="1" pageWidth="850" pageHeight="1100" math="0" shadow="0">
      <root>
        <mxCell id="0" />
        <mxCell id="1" parent="0" />
        <mxCell id="LQV_r9siElokm8lHUJwI-3" style="edgeStyle=orthogonalEdgeStyle;rounded=0;orthogonalLoop=1;jettySize=auto;html=1;entryX=0;entryY=0.5;entryDx=0;entryDy=0;" edge="1" parent="1" source="LQV_r9siElokm8lHUJwI-1" target="LQV_r9siElokm8lHUJwI-2">
          <mxGeometry relative="1" as="geometry" />
        </mxCell>
        <mxCell id="LQV_r9siElokm8lHUJwI-8" style="edgeStyle=orthogonalEdgeStyle;rounded=0;orthogonalLoop=1;jettySize=auto;html=1;entryX=0.5;entryY=1;entryDx=0;entryDy=0;" edge="1" parent="1" source="LQV_r9siElokm8lHUJwI-1" target="LQV_r9siElokm8lHUJwI-4">
          <mxGeometry relative="1" as="geometry">
            <Array as="points">
              <mxPoint x="280" y="170" />
              <mxPoint x="210" y="170" />
            </Array>
          </mxGeometry>
        </mxCell>
        <mxCell id="LQV_r9siElokm8lHUJwI-9" style="edgeStyle=orthogonalEdgeStyle;rounded=0;orthogonalLoop=1;jettySize=auto;html=1;entryX=0.5;entryY=1;entryDx=0;entryDy=0;" edge="1" parent="1" source="LQV_r9siElokm8lHUJwI-1" target="LQV_r9siElokm8lHUJwI-5">
          <mxGeometry relative="1" as="geometry">
            <Array as="points">
              <mxPoint x="280" y="170" />
              <mxPoint x="350" y="170" />
            </Array>
          </mxGeometry>
        </mxCell>
        <mxCell id="LQV_r9siElokm8lHUJwI-10" style="edgeStyle=orthogonalEdgeStyle;rounded=0;orthogonalLoop=1;jettySize=auto;html=1;entryX=0.5;entryY=1;entryDx=0;entryDy=0;" edge="1" parent="1" source="LQV_r9siElokm8lHUJwI-1" target="LQV_r9siElokm8lHUJwI-6">
          <mxGeometry relative="1" as="geometry">
            <Array as="points">
              <mxPoint x="280" y="170" />
              <mxPoint x="490" y="170" />
            </Array>
          </mxGeometry>
        </mxCell>
        <mxCell id="LQV_r9siElokm8lHUJwI-11" style="edgeStyle=orthogonalEdgeStyle;rounded=0;orthogonalLoop=1;jettySize=auto;html=1;exitX=0.5;exitY=0;exitDx=0;exitDy=0;" edge="1" parent="1" source="LQV_r9siElokm8lHUJwI-1" target="LQV_r9siElokm8lHUJwI-7">
          <mxGeometry relative="1" as="geometry">
            <Array as="points">
              <mxPoint x="280" y="170" />
              <mxPoint x="640" y="170" />
            </Array>
          </mxGeometry>
        </mxCell>
        <mxCell id="LQV_r9siElokm8lHUJwI-21" style="edgeStyle=orthogonalEdgeStyle;rounded=0;orthogonalLoop=1;jettySize=auto;html=1;entryX=0.5;entryY=0;entryDx=0;entryDy=0;exitX=0.5;exitY=1;exitDx=0;exitDy=0;" edge="1" parent="1" source="LQV_r9siElokm8lHUJwI-1" target="LQV_r9siElokm8lHUJwI-20">
          <mxGeometry relative="1" as="geometry" />
        </mxCell>
        <mxCell id="LQV_r9siElokm8lHUJwI-28" style="edgeStyle=orthogonalEdgeStyle;rounded=0;orthogonalLoop=1;jettySize=auto;html=1;entryX=0.5;entryY=0;entryDx=0;entryDy=0;exitX=0.5;exitY=1;exitDx=0;exitDy=0;" edge="1" parent="1" source="LQV_r9siElokm8lHUJwI-1" target="LQV_r9siElokm8lHUJwI-27">
          <mxGeometry relative="1" as="geometry" />
        </mxCell>
        <mxCell id="LQV_r9siElokm8lHUJwI-1" value="Deep Learning" style="rounded=0;whiteSpace=wrap;html=1;" vertex="1" parent="1">
          <mxGeometry x="220" y="230" width="120" height="60" as="geometry" />
        </mxCell>
        <mxCell id="LQV_r9siElokm8lHUJwI-2" value="Multilayer Artificial Neural Network (ANN)" style="rounded=0;whiteSpace=wrap;html=1;" vertex="1" parent="1">
          <mxGeometry x="460" y="230" width="120" height="60" as="geometry" />
        </mxCell>
        <mxCell id="LQV_r9siElokm8lHUJwI-4" value="Image Recognition" style="rounded=1;whiteSpace=wrap;html=1;" vertex="1" parent="1">
          <mxGeometry x="150" y="80" width="120" height="60" as="geometry" />
        </mxCell>
        <mxCell id="LQV_r9siElokm8lHUJwI-5" value="Text Recognition" style="rounded=1;whiteSpace=wrap;html=1;" vertex="1" parent="1">
          <mxGeometry x="290" y="80" width="120" height="60" as="geometry" />
        </mxCell>
        <mxCell id="LQV_r9siElokm8lHUJwI-6" value="Drug Discovery" style="rounded=1;whiteSpace=wrap;html=1;" vertex="1" parent="1">
          <mxGeometry x="430" y="80" width="120" height="60" as="geometry" />
        </mxCell>
        <mxCell id="LQV_r9siElokm8lHUJwI-7" value="Toxicity Prediction" style="rounded=1;whiteSpace=wrap;html=1;" vertex="1" parent="1">
          <mxGeometry x="580" y="80" width="120" height="60" as="geometry" />
        </mxCell>
        <mxCell id="LQV_r9siElokm8lHUJwI-13" style="edgeStyle=orthogonalEdgeStyle;rounded=0;orthogonalLoop=1;jettySize=auto;html=1;entryX=0.5;entryY=0;entryDx=0;entryDy=0;" edge="1" parent="1" source="LQV_r9siElokm8lHUJwI-12" target="LQV_r9siElokm8lHUJwI-6">
          <mxGeometry relative="1" as="geometry" />
        </mxCell>
        <mxCell id="LQV_r9siElokm8lHUJwI-14" style="edgeStyle=orthogonalEdgeStyle;rounded=0;orthogonalLoop=1;jettySize=auto;html=1;entryX=0.5;entryY=0;entryDx=0;entryDy=0;" edge="1" parent="1" source="LQV_r9siElokm8lHUJwI-12" target="LQV_r9siElokm8lHUJwI-7">
          <mxGeometry relative="1" as="geometry" />
        </mxCell>
        <mxCell id="LQV_r9siElokm8lHUJwI-12" value="health industry" style="text;whiteSpace=wrap;html=1;align=center;" vertex="1" parent="1">
          <mxGeometry x="520" y="10" width="110" height="30" as="geometry" />
        </mxCell>
        <mxCell id="LQV_r9siElokm8lHUJwI-18" style="edgeStyle=orthogonalEdgeStyle;rounded=0;orthogonalLoop=1;jettySize=auto;html=1;" edge="1" parent="1" source="LQV_r9siElokm8lHUJwI-15" target="LQV_r9siElokm8lHUJwI-16">
          <mxGeometry relative="1" as="geometry" />
        </mxCell>
        <mxCell id="LQV_r9siElokm8lHUJwI-15" value="Hidrocarbon Industry" style="text;whiteSpace=wrap;html=1;align=center;" vertex="1" parent="1">
          <mxGeometry x="10" y="10" width="120" height="30" as="geometry" />
        </mxCell>
        <mxCell id="LQV_r9siElokm8lHUJwI-16" value="Exploration, Reservoir Characterization, Monitoring during oil production and oil field development" style="rounded=1;whiteSpace=wrap;html=1;" vertex="1" parent="1">
          <mxGeometry x="10" y="55" width="120" height="110" as="geometry" />
        </mxCell>
        <mxCell id="LQV_r9siElokm8lHUJwI-19" style="edgeStyle=orthogonalEdgeStyle;rounded=0;orthogonalLoop=1;jettySize=auto;html=1;entryX=0.433;entryY=1.027;entryDx=0;entryDy=0;entryPerimeter=0;" edge="1" parent="1" source="LQV_r9siElokm8lHUJwI-1" target="LQV_r9siElokm8lHUJwI-16">
          <mxGeometry relative="1" as="geometry" />
        </mxCell>
        <mxCell id="LQV_r9siElokm8lHUJwI-24" style="edgeStyle=orthogonalEdgeStyle;rounded=0;orthogonalLoop=1;jettySize=auto;html=1;entryX=0.5;entryY=0;entryDx=0;entryDy=0;" edge="1" parent="1" source="LQV_r9siElokm8lHUJwI-20" target="LQV_r9siElokm8lHUJwI-22">
          <mxGeometry relative="1" as="geometry" />
        </mxCell>
        <mxCell id="LQV_r9siElokm8lHUJwI-25" style="edgeStyle=orthogonalEdgeStyle;rounded=0;orthogonalLoop=1;jettySize=auto;html=1;" edge="1" parent="1" source="LQV_r9siElokm8lHUJwI-20" target="LQV_r9siElokm8lHUJwI-23">
          <mxGeometry relative="1" as="geometry" />
        </mxCell>
        <mxCell id="LQV_r9siElokm8lHUJwI-20" value="&lt;br&gt;Multilayer Perceptron (MLP)&lt;br&gt;&lt;div&gt;&lt;br/&gt;&lt;/div&gt;" style="rounded=1;whiteSpace=wrap;html=1;" vertex="1" parent="1">
          <mxGeometry x="40" y="340" width="150" height="60" as="geometry" />
        </mxCell>
        <mxCell id="LQV_r9siElokm8lHUJwI-22" value="Forward Propagation" style="rounded=1;whiteSpace=wrap;html=1;" vertex="1" parent="1">
          <mxGeometry x="10" y="470" width="80" height="60" as="geometry" />
        </mxCell>
        <mxCell id="LQV_r9siElokm8lHUJwI-23" value="Error Calculation" style="rounded=1;whiteSpace=wrap;html=1;" vertex="1" parent="1">
          <mxGeometry x="120" y="470" width="80" height="60" as="geometry" />
        </mxCell>
        <mxCell id="LQV_r9siElokm8lHUJwI-26" value="Error Back-propagation" style="rounded=1;whiteSpace=wrap;html=1;" vertex="1" parent="1">
          <mxGeometry x="230" y="470" width="80" height="60" as="geometry" />
        </mxCell>
        <mxCell id="LQV_r9siElokm8lHUJwI-27" value="&quot;Keras&quot;" style="rounded=1;whiteSpace=wrap;html=1;" vertex="1" parent="1">
          <mxGeometry x="370" y="340" width="120" height="60" as="geometry" />
        </mxCell>
        <mxCell id="LQV_r9siElokm8lHUJwI-29" value="a Python library for Deep Learning that wraps the numerical libraries Theano and Tensor Flow" style="text;whiteSpace=wrap;html=1;" vertex="1" parent="1">
          <mxGeometry x="510" y="350" width="250" height="40" as="geometry" />
        </mxCell>
      </root>
    </mxGraphModel>
  </diagram>
  <diagram id="N1toitTr_1ZFFQBsm6vQ" name="metodologi">
    <mxGraphModel dx="1194" dy="748" grid="0" gridSize="10" guides="1" tooltips="1" connect="1" arrows="1" fold="1" page="1" pageScale="1" pageWidth="850" pageHeight="1100" background="none" math="0" shadow="0">
      <root>
        <mxCell id="0" />
        <mxCell id="1" parent="0" />
        <mxCell id="pi7YrrtwYcuSO0-h6VBh-8" style="edgeStyle=orthogonalEdgeStyle;rounded=0;orthogonalLoop=1;jettySize=auto;html=1;entryX=0.5;entryY=0;entryDx=0;entryDy=0;" edge="1" parent="1" source="pi7YrrtwYcuSO0-h6VBh-1" target="pi7YrrtwYcuSO0-h6VBh-5">
          <mxGeometry relative="1" as="geometry" />
        </mxCell>
        <mxCell id="pi7YrrtwYcuSO0-h6VBh-1" value="Preprocessing &amp;amp; Load Data" style="rounded=0;whiteSpace=wrap;html=1;" vertex="1" parent="1">
          <mxGeometry x="160" y="100" width="120" height="60" as="geometry" />
        </mxCell>
        <mxCell id="pi7YrrtwYcuSO0-h6VBh-4" style="edgeStyle=orthogonalEdgeStyle;rounded=0;orthogonalLoop=1;jettySize=auto;html=1;entryX=1;entryY=0.5;entryDx=0;entryDy=0;" edge="1" parent="1" source="pi7YrrtwYcuSO0-h6VBh-3" target="pi7YrrtwYcuSO0-h6VBh-1">
          <mxGeometry relative="1" as="geometry" />
        </mxCell>
        <mxCell id="pi7YrrtwYcuSO0-h6VBh-3" value="Visualize Data, gain insight into the data" style="text;html=1;align=center;verticalAlign=middle;whiteSpace=wrap;rounded=0;" vertex="1" parent="1">
          <mxGeometry x="380" y="105" width="160" height="50" as="geometry" />
        </mxCell>
        <mxCell id="pi7YrrtwYcuSO0-h6VBh-13" style="edgeStyle=orthogonalEdgeStyle;rounded=0;orthogonalLoop=1;jettySize=auto;html=1;entryX=0.5;entryY=0;entryDx=0;entryDy=0;" edge="1" parent="1" source="pi7YrrtwYcuSO0-h6VBh-5" target="pi7YrrtwYcuSO0-h6VBh-9">
          <mxGeometry relative="1" as="geometry" />
        </mxCell>
        <mxCell id="pi7YrrtwYcuSO0-h6VBh-5" value="Define Model" style="rounded=0;whiteSpace=wrap;html=1;" vertex="1" parent="1">
          <mxGeometry x="160" y="210" width="120" height="60" as="geometry" />
        </mxCell>
        <mxCell id="pi7YrrtwYcuSO0-h6VBh-7" style="edgeStyle=orthogonalEdgeStyle;rounded=0;orthogonalLoop=1;jettySize=auto;html=1;entryX=1;entryY=0.5;entryDx=0;entryDy=0;" edge="1" parent="1" source="pi7YrrtwYcuSO0-h6VBh-6" target="pi7YrrtwYcuSO0-h6VBh-5">
          <mxGeometry relative="1" as="geometry" />
        </mxCell>
        <mxCell id="pi7YrrtwYcuSO0-h6VBh-6" value="specify the number of hidden layers in the neural network and their size, the input and output size" style="text;whiteSpace=wrap;html=1;align=center;" vertex="1" parent="1">
          <mxGeometry x="380" y="210" width="220" height="60" as="geometry" />
        </mxCell>
        <mxCell id="pi7YrrtwYcuSO0-h6VBh-18" style="edgeStyle=orthogonalEdgeStyle;rounded=0;orthogonalLoop=1;jettySize=auto;html=1;entryX=0.5;entryY=0;entryDx=0;entryDy=0;" edge="1" parent="1" source="pi7YrrtwYcuSO0-h6VBh-9" target="pi7YrrtwYcuSO0-h6VBh-14">
          <mxGeometry relative="1" as="geometry" />
        </mxCell>
        <mxCell id="pi7YrrtwYcuSO0-h6VBh-9" value="Loss &amp;amp; Optimizer" style="rounded=0;whiteSpace=wrap;html=1;" vertex="1" parent="1">
          <mxGeometry x="160" y="320" width="120" height="60" as="geometry" />
        </mxCell>
        <mxCell id="pi7YrrtwYcuSO0-h6VBh-12" style="edgeStyle=orthogonalEdgeStyle;rounded=0;orthogonalLoop=1;jettySize=auto;html=1;entryX=1;entryY=0.5;entryDx=0;entryDy=0;" edge="1" parent="1" source="pi7YrrtwYcuSO0-h6VBh-11" target="pi7YrrtwYcuSO0-h6VBh-9">
          <mxGeometry relative="1" as="geometry" />
        </mxCell>
        <mxCell id="pi7YrrtwYcuSO0-h6VBh-11" value="define the loss function according to our task. We also need to specify the optimizer to use with learning rate and other hyperparameters of the optimizer" style="text;whiteSpace=wrap;html=1;align=center;" vertex="1" parent="1">
          <mxGeometry x="380" y="307.5" width="230" height="85" as="geometry" />
        </mxCell>
        <mxCell id="pi7YrrtwYcuSO0-h6VBh-14" value="Fit Model" style="rounded=0;whiteSpace=wrap;html=1;" vertex="1" parent="1">
          <mxGeometry x="160" y="430" width="120" height="60" as="geometry" />
        </mxCell>
        <mxCell id="pi7YrrtwYcuSO0-h6VBh-17" style="edgeStyle=orthogonalEdgeStyle;rounded=0;orthogonalLoop=1;jettySize=auto;html=1;entryX=1;entryY=0.5;entryDx=0;entryDy=0;" edge="1" parent="1" source="pi7YrrtwYcuSO0-h6VBh-16" target="pi7YrrtwYcuSO0-h6VBh-14">
          <mxGeometry relative="1" as="geometry" />
        </mxCell>
        <mxCell id="pi7YrrtwYcuSO0-h6VBh-16" value="This is the training step of the neural network. Here we need to define the number of epochs for which we need to train the neural network." style="text;whiteSpace=wrap;html=1;" vertex="1" parent="1">
          <mxGeometry x="380" y="420" width="230" height="80" as="geometry" />
        </mxCell>
        <mxCell id="pi7YrrtwYcuSO0-h6VBh-20" value="After fitting model, we can test it on test data to check whether the case of overfitting. We can save the weights of the model and use it later whenever required." style="text;whiteSpace=wrap;html=1;" vertex="1" parent="1">
          <mxGeometry x="160" y="550" width="440" height="50" as="geometry" />
        </mxCell>
        <mxCell id="pi7YrrtwYcuSO0-h6VBh-21" style="edgeStyle=orthogonalEdgeStyle;rounded=0;orthogonalLoop=1;jettySize=auto;html=1;entryX=0.136;entryY=-0.08;entryDx=0;entryDy=0;entryPerimeter=0;" edge="1" parent="1" source="pi7YrrtwYcuSO0-h6VBh-14" target="pi7YrrtwYcuSO0-h6VBh-20">
          <mxGeometry relative="1" as="geometry" />
        </mxCell>
      </root>
    </mxGraphModel>
  </diagram>
</mxfile>
